<mxfile host="app.diagrams.net" modified="2022-02-08T15:10:14.056Z" agent="5.0 (Windows NT 10.0; Win64; x64) AppleWebKit/537.36 (KHTML, like Gecko) Chrome/98.0.4758.81 Safari/537.36" etag="xIgQ2COv9x6t4BXXTjUJ" version="16.5.3" type="github">
  <diagram name="Page-1" id="c4acf3e9-155e-7222-9cf6-157b1a14988f">
    <mxGraphModel dx="868" dy="482" grid="1" gridSize="10" guides="1" tooltips="1" connect="1" arrows="1" fold="1" page="1" pageScale="1" pageWidth="850" pageHeight="1100" background="none" math="0" shadow="0">
      <root>
        <mxCell id="0" />
        <mxCell id="1" parent="0" />
        <mxCell id="06SJZO-Lslu67XNqmLuP-3" value="&lt;font style=&quot;font-size: 20px&quot;&gt;State Chart Diagram&lt;/font&gt;" style="text;html=1;align=center;verticalAlign=middle;resizable=0;points=[];autosize=1;strokeColor=none;fillColor=none;" vertex="1" parent="1">
          <mxGeometry x="510" y="70" width="200" height="20" as="geometry" />
        </mxCell>
        <mxCell id="06SJZO-Lslu67XNqmLuP-4" value="" style="ellipse;html=1;shape=startState;fillColor=#000000;strokeColor=#ff0000;fontSize=20;" vertex="1" parent="1">
          <mxGeometry x="310" y="120" width="30" height="30" as="geometry" />
        </mxCell>
        <mxCell id="06SJZO-Lslu67XNqmLuP-5" value="" style="edgeStyle=orthogonalEdgeStyle;html=1;verticalAlign=bottom;endArrow=open;endSize=8;strokeColor=#ff0000;rounded=0;fontSize=20;" edge="1" source="06SJZO-Lslu67XNqmLuP-4" parent="1">
          <mxGeometry relative="1" as="geometry">
            <mxPoint x="325" y="210" as="targetPoint" />
          </mxGeometry>
        </mxCell>
        <mxCell id="06SJZO-Lslu67XNqmLuP-11" value="Registration" style="swimlane;fontStyle=1;align=center;verticalAlign=middle;childLayout=stackLayout;horizontal=1;startSize=30;horizontalStack=0;resizeParent=0;resizeLast=1;container=0;fontColor=#000000;collapsible=0;rounded=1;arcSize=30;strokeColor=#ff0000;fillColor=#ffffc0;swimlaneFillColor=#ffffc0;dropTarget=0;fontSize=13;" vertex="1" parent="1">
          <mxGeometry x="250" y="210" width="170" height="90" as="geometry" />
        </mxCell>
        <mxCell id="06SJZO-Lslu67XNqmLuP-12" value="Do: Customer Registration" style="text;html=1;strokeColor=none;fillColor=none;align=center;verticalAlign=middle;spacingLeft=4;spacingRight=4;whiteSpace=wrap;overflow=hidden;rotatable=0;fontColor=#000000;fontSize=13;" vertex="1" parent="06SJZO-Lslu67XNqmLuP-11">
          <mxGeometry y="30" width="170" height="60" as="geometry" />
        </mxCell>
        <mxCell id="06SJZO-Lslu67XNqmLuP-15" value="" style="endArrow=classic;html=1;rounded=0;fontSize=13;exitX=1;exitY=0.25;exitDx=0;exitDy=0;" edge="1" parent="1" source="06SJZO-Lslu67XNqmLuP-12">
          <mxGeometry width="50" height="50" relative="1" as="geometry">
            <mxPoint x="620" y="190" as="sourcePoint" />
            <mxPoint x="530" y="255" as="targetPoint" />
          </mxGeometry>
        </mxCell>
        <mxCell id="06SJZO-Lslu67XNqmLuP-16" value="User_email" style="text;html=1;align=center;verticalAlign=middle;resizable=0;points=[];autosize=1;strokeColor=none;fillColor=none;fontSize=13;" vertex="1" parent="1">
          <mxGeometry x="425" y="260" width="80" height="20" as="geometry" />
        </mxCell>
        <mxCell id="06SJZO-Lslu67XNqmLuP-17" value="Password" style="text;html=1;align=center;verticalAlign=middle;resizable=0;points=[];autosize=1;strokeColor=none;fillColor=none;fontSize=13;" vertex="1" parent="1">
          <mxGeometry x="430" y="230" width="70" height="20" as="geometry" />
        </mxCell>
        <mxCell id="06SJZO-Lslu67XNqmLuP-19" value="Login" style="swimlane;fontStyle=1;align=center;verticalAlign=middle;childLayout=stackLayout;horizontal=1;startSize=30;horizontalStack=0;resizeParent=0;resizeLast=1;container=0;fontColor=#000000;collapsible=0;rounded=1;arcSize=30;strokeColor=#ff0000;fillColor=#ffffc0;swimlaneFillColor=#ffffc0;dropTarget=0;fontSize=13;" vertex="1" parent="1">
          <mxGeometry x="530" y="210" width="170" height="80" as="geometry" />
        </mxCell>
        <mxCell id="06SJZO-Lslu67XNqmLuP-20" value="Do: Customer Login Authentication" style="text;html=1;strokeColor=none;fillColor=none;align=center;verticalAlign=middle;spacingLeft=4;spacingRight=4;whiteSpace=wrap;overflow=hidden;rotatable=0;fontColor=#000000;fontSize=13;" vertex="1" parent="06SJZO-Lslu67XNqmLuP-19">
          <mxGeometry y="30" width="170" height="50" as="geometry" />
        </mxCell>
        <mxCell id="06SJZO-Lslu67XNqmLuP-22" value="Dashboard" style="swimlane;fontStyle=1;align=center;verticalAlign=middle;childLayout=stackLayout;horizontal=1;startSize=30;horizontalStack=0;resizeParent=0;resizeLast=1;container=0;fontColor=#000000;collapsible=0;rounded=1;arcSize=30;strokeColor=#ff0000;fillColor=#ffffc0;swimlaneFillColor=#ffffc0;dropTarget=0;fontSize=13;" vertex="1" parent="1">
          <mxGeometry x="820" y="200" width="210" height="100" as="geometry" />
        </mxCell>
        <mxCell id="06SJZO-Lslu67XNqmLuP-23" value="Do: Show Customer data, Shares Bought, Prices of purchased shares and Customer Wallet" style="text;html=1;strokeColor=none;fillColor=none;align=center;verticalAlign=middle;spacingLeft=4;spacingRight=4;whiteSpace=wrap;overflow=hidden;rotatable=0;fontColor=#000000;fontSize=13;" vertex="1" parent="06SJZO-Lslu67XNqmLuP-22">
          <mxGeometry y="30" width="210" height="70" as="geometry" />
        </mxCell>
        <mxCell id="06SJZO-Lslu67XNqmLuP-25" value="" style="endArrow=classic;html=1;rounded=0;fontSize=13;entryX=-0.029;entryY=0.314;entryDx=0;entryDy=0;entryPerimeter=0;exitX=1;exitY=0.25;exitDx=0;exitDy=0;" edge="1" parent="1" source="06SJZO-Lslu67XNqmLuP-20" target="06SJZO-Lslu67XNqmLuP-23">
          <mxGeometry width="50" height="50" relative="1" as="geometry">
            <mxPoint x="620" y="370" as="sourcePoint" />
            <mxPoint x="670" y="320" as="targetPoint" />
          </mxGeometry>
        </mxCell>
        <mxCell id="06SJZO-Lslu67XNqmLuP-26" value="Customer &lt;br&gt;Data" style="text;html=1;align=center;verticalAlign=middle;resizable=0;points=[];autosize=1;strokeColor=none;fillColor=none;fontSize=13;" vertex="1" parent="1">
          <mxGeometry x="715" y="210" width="70" height="40" as="geometry" />
        </mxCell>
        <mxCell id="06SJZO-Lslu67XNqmLuP-29" value="New User" style="text;html=1;align=center;verticalAlign=middle;resizable=0;points=[];autosize=1;strokeColor=none;fillColor=none;fontSize=13;" vertex="1" parent="1">
          <mxGeometry x="330" y="170" width="70" height="20" as="geometry" />
        </mxCell>
        <mxCell id="06SJZO-Lslu67XNqmLuP-30" value="" style="endArrow=classic;html=1;rounded=0;fontSize=13;exitX=1;exitY=0.5;exitDx=0;exitDy=0;entryX=0.165;entryY=0.013;entryDx=0;entryDy=0;entryPerimeter=0;" edge="1" parent="1" source="06SJZO-Lslu67XNqmLuP-4" target="06SJZO-Lslu67XNqmLuP-19">
          <mxGeometry width="50" height="50" relative="1" as="geometry">
            <mxPoint x="620" y="360" as="sourcePoint" />
            <mxPoint x="670" y="310" as="targetPoint" />
          </mxGeometry>
        </mxCell>
        <mxCell id="06SJZO-Lslu67XNqmLuP-31" value="User with &lt;br&gt;an account" style="text;html=1;align=center;verticalAlign=middle;resizable=0;points=[];autosize=1;strokeColor=none;fillColor=none;fontSize=13;" vertex="1" parent="1">
          <mxGeometry x="430" y="130" width="80" height="40" as="geometry" />
        </mxCell>
        <mxCell id="06SJZO-Lslu67XNqmLuP-34" value="" style="endArrow=none;html=1;rounded=0;fontSize=13;" edge="1" parent="1">
          <mxGeometry width="50" height="50" relative="1" as="geometry">
            <mxPoint x="597" y="210" as="sourcePoint" />
            <mxPoint x="597" y="160" as="targetPoint" />
          </mxGeometry>
        </mxCell>
        <mxCell id="06SJZO-Lslu67XNqmLuP-35" value="" style="endArrow=classic;html=1;rounded=0;fontSize=13;entryX=0.759;entryY=-0.075;entryDx=0;entryDy=0;entryPerimeter=0;" edge="1" parent="1" target="06SJZO-Lslu67XNqmLuP-19">
          <mxGeometry width="50" height="50" relative="1" as="geometry">
            <mxPoint x="660" y="160" as="sourcePoint" />
            <mxPoint x="730" y="140" as="targetPoint" />
          </mxGeometry>
        </mxCell>
        <mxCell id="06SJZO-Lslu67XNqmLuP-36" value="" style="endArrow=none;html=1;rounded=0;fontSize=13;" edge="1" parent="1">
          <mxGeometry width="50" height="50" relative="1" as="geometry">
            <mxPoint x="600" y="160" as="sourcePoint" />
            <mxPoint x="660" y="160" as="targetPoint" />
          </mxGeometry>
        </mxCell>
        <mxCell id="06SJZO-Lslu67XNqmLuP-37" value="Incorrect &lt;br&gt;Credentials" style="text;html=1;align=center;verticalAlign=middle;resizable=0;points=[];autosize=1;strokeColor=none;fillColor=none;fontSize=13;" vertex="1" parent="1">
          <mxGeometry x="590" y="120" width="80" height="40" as="geometry" />
        </mxCell>
        <mxCell id="06SJZO-Lslu67XNqmLuP-38" value="" style="endArrow=classic;html=1;rounded=0;fontSize=13;exitX=0.29;exitY=1.057;exitDx=0;exitDy=0;exitPerimeter=0;entryX=1;entryY=0.25;entryDx=0;entryDy=0;" edge="1" parent="1" source="06SJZO-Lslu67XNqmLuP-23" target="06SJZO-Lslu67XNqmLuP-49">
          <mxGeometry width="50" height="50" relative="1" as="geometry">
            <mxPoint x="800" y="400" as="sourcePoint" />
            <mxPoint x="450" y="340" as="targetPoint" />
          </mxGeometry>
        </mxCell>
        <mxCell id="06SJZO-Lslu67XNqmLuP-52" value="Logout" style="edgeLabel;html=1;align=center;verticalAlign=middle;resizable=0;points=[];fontSize=13;" vertex="1" connectable="0" parent="06SJZO-Lslu67XNqmLuP-38">
          <mxGeometry x="0.1983" y="-7" relative="1" as="geometry">
            <mxPoint x="22" y="-5" as="offset" />
          </mxGeometry>
        </mxCell>
        <mxCell id="06SJZO-Lslu67XNqmLuP-39" value="" style="endArrow=classic;html=1;rounded=0;fontSize=13;exitX=0.4;exitY=1.057;exitDx=0;exitDy=0;exitPerimeter=0;" edge="1" parent="1" source="06SJZO-Lslu67XNqmLuP-23">
          <mxGeometry width="50" height="50" relative="1" as="geometry">
            <mxPoint x="900" y="400" as="sourcePoint" />
            <mxPoint x="740" y="390" as="targetPoint" />
          </mxGeometry>
        </mxCell>
        <mxCell id="06SJZO-Lslu67XNqmLuP-40" value="" style="endArrow=classic;html=1;rounded=0;fontSize=13;exitX=0.6;exitY=1.1;exitDx=0;exitDy=0;exitPerimeter=0;" edge="1" parent="1" source="06SJZO-Lslu67XNqmLuP-23">
          <mxGeometry width="50" height="50" relative="1" as="geometry">
            <mxPoint x="960" y="420" as="sourcePoint" />
            <mxPoint x="840" y="430" as="targetPoint" />
          </mxGeometry>
        </mxCell>
        <mxCell id="06SJZO-Lslu67XNqmLuP-41" value="Composite State" style="swimlane;fontStyle=1;align=center;verticalAlign=middle;childLayout=stackLayout;horizontal=1;startSize=30;horizontalStack=0;resizeParent=0;resizeLast=1;container=0;fontColor=#000000;collapsible=0;rounded=1;arcSize=30;strokeColor=#ff0000;fillColor=#ffffc0;swimlaneFillColor=#ffffc0;dropTarget=0;fontSize=13;" vertex="1" parent="1">
          <mxGeometry x="480" y="450" width="160" height="60" as="geometry" />
        </mxCell>
        <mxCell id="06SJZO-Lslu67XNqmLuP-42" value="Subtitle" style="text;html=1;strokeColor=none;fillColor=none;align=center;verticalAlign=middle;spacingLeft=4;spacingRight=4;whiteSpace=wrap;overflow=hidden;rotatable=0;fontColor=#000000;fontSize=13;" vertex="1" parent="06SJZO-Lslu67XNqmLuP-41">
          <mxGeometry y="30" width="160" height="30" as="geometry" />
        </mxCell>
        <mxCell id="06SJZO-Lslu67XNqmLuP-44" value="Composite State" style="swimlane;fontStyle=1;align=center;verticalAlign=middle;childLayout=stackLayout;horizontal=1;startSize=30;horizontalStack=0;resizeParent=0;resizeLast=1;container=0;fontColor=#000000;collapsible=0;rounded=1;arcSize=30;strokeColor=#ff0000;fillColor=#ffffc0;swimlaneFillColor=#ffffc0;dropTarget=0;fontSize=13;" vertex="1" parent="1">
          <mxGeometry x="680" y="450" width="160" height="60" as="geometry" />
        </mxCell>
        <mxCell id="06SJZO-Lslu67XNqmLuP-45" value="Subtitle" style="text;html=1;strokeColor=none;fillColor=none;align=center;verticalAlign=middle;spacingLeft=4;spacingRight=4;whiteSpace=wrap;overflow=hidden;rotatable=0;fontColor=#000000;fontSize=13;" vertex="1" parent="06SJZO-Lslu67XNqmLuP-44">
          <mxGeometry y="30" width="160" height="30" as="geometry" />
        </mxCell>
        <mxCell id="06SJZO-Lslu67XNqmLuP-46" value="Composite State" style="swimlane;fontStyle=1;align=center;verticalAlign=middle;childLayout=stackLayout;horizontal=1;startSize=30;horizontalStack=0;resizeParent=0;resizeLast=1;container=0;fontColor=#000000;collapsible=0;rounded=1;arcSize=30;strokeColor=#ff0000;fillColor=#ffffc0;swimlaneFillColor=#ffffc0;dropTarget=0;fontSize=13;" vertex="1" parent="1">
          <mxGeometry x="870" y="450" width="160" height="60" as="geometry" />
        </mxCell>
        <mxCell id="06SJZO-Lslu67XNqmLuP-47" value="Subtitle" style="text;html=1;strokeColor=none;fillColor=none;align=center;verticalAlign=middle;spacingLeft=4;spacingRight=4;whiteSpace=wrap;overflow=hidden;rotatable=0;fontColor=#000000;fontSize=13;" vertex="1" parent="06SJZO-Lslu67XNqmLuP-46">
          <mxGeometry y="30" width="160" height="30" as="geometry" />
        </mxCell>
        <mxCell id="06SJZO-Lslu67XNqmLuP-49" value="Logout" style="swimlane;fontStyle=1;align=center;verticalAlign=middle;childLayout=stackLayout;horizontal=1;startSize=30;horizontalStack=0;resizeParent=0;resizeLast=1;container=0;fontColor=#000000;collapsible=0;rounded=1;arcSize=30;strokeColor=#ff0000;fillColor=#ffffc0;swimlaneFillColor=#ffffc0;dropTarget=0;fontSize=13;" vertex="1" parent="1">
          <mxGeometry x="245" y="330" width="215" height="80" as="geometry" />
        </mxCell>
        <mxCell id="06SJZO-Lslu67XNqmLuP-50" value="Do: Destroy Session and Log user out to the Login screen" style="text;html=1;strokeColor=none;fillColor=none;align=center;verticalAlign=middle;spacingLeft=4;spacingRight=4;whiteSpace=wrap;overflow=hidden;rotatable=0;fontColor=#000000;fontSize=13;" vertex="1" parent="06SJZO-Lslu67XNqmLuP-49">
          <mxGeometry y="30" width="215" height="50" as="geometry" />
        </mxCell>
      </root>
    </mxGraphModel>
  </diagram>
</mxfile>
